<?xml version="1.0" encoding="UTF-8"?>
<svg id="_Слой_2" data-name="Слой 2" xmlns="http://www.w3.org/2000/svg" viewBox="0 0 666.19 150.89">
  <defs>
    <style>
      .cls-1 {
        fill: #44549f;
      }

      .cls-1, .cls-2, .cls-3, .cls-4, .cls-5 {
        fill-rule: evenodd;
      }

      .cls-2 {
        fill: #7fbfe9;
      }

      .cls-3 {
        fill: #2b3278;
      }

      .cls-4 {
        fill: #568cc9;
      }

      .cls-5 {
        fill: #2d3079;
      }
    </style>
  </defs>
  <g id="_Слой_1-2" data-name="Слой 1">
    <g>
      <g>
        <polygon class="cls-5" points="559.16 122.4 522.65 140.66 528.63 98.07 559.16 86.59 559.16 122.4"/>
        <polygon class="cls-5" points="607.3 96.51 617.37 150.89 565.95 122.35 565.95 86.6 607.3 96.51"/>
        <polygon class="cls-5" points="666.19 40.82 607.82 90.15 566.47 81.05 591.45 45.67 666.19 40.82"/>
        <polygon class="cls-5" points="557.39 80.49 526.94 93.29 499.71 68.32 537.29 55.67 557.39 80.49"/>
        <polygon class="cls-4" points="557.39 43.29 540.9 51.32 562.18 76.46 585.92 43.29 557.39 43.29"/>
        <polygon class="cls-2" points="557.39 43.29 585.92 43.29 561.15 0 540.9 51.32 557.39 43.29"/>
        <polygon class="cls-4" points="561.15 0 557.39 43.29 585.92 43.29 561.15 0"/>
        <polygon class="cls-1" points="557.39 43.29 562.18 76.46 585.92 43.29 557.39 43.29"/>
      </g>
      <g>
        <path class="cls-3" d="M475.97,86.98c-.08,2.37-.88,5.52-6.93,5.52h-.26s-29.99.05-29.99.05v-11.57h30.08c2.74-.07,4.7.49,5.82,1.65.92.96,1.35,2.42,1.29,4.35h0ZM483.7,73.19c-2.59-2.22-6.11-3.34-10.45-3.34-.22,0-.44,0-.63,0h-47.93v54.02h14.1v-20.24h34.04c4.55,0,8.33-1.35,11.23-4.03,3.17-2.97,4.83-7.2,4.95-12.63-.23-6.33-2.02-10.97-5.32-13.79Z"/>
        <path class="cls-3" d="M207.76,106.69c.07,1.92-.35,3.33-1.28,4.3-1.08,1.13-2.94,1.7-5.53,1.7h-30.37v-11.57l29.96.05h.24c6.09,0,6.9,3.15,6.98,5.53h0ZM204.61,89.98h-34.04s0-20.18,0-20.18h-14.1v54.02h47.85c.24,0,.47,0,.69,0,10.06,0,15.35-5.76,15.73-17.19-.08-5.37-1.74-9.62-4.95-12.63-2.87-2.67-6.63-4.03-11.19-4.03Z"/>
        <path class="cls-3" d="M45.93,100.56h-19.03l9.6-17.68,9.43,17.68h0ZM30.45,69.42L0,123.45h14.47l6.03-11.35h31.54l6.23,11.35h16.1l-30.99-54.03h-12.92Z"/>
        <polygon class="cls-3" points="108.6 69.42 78.85 123.45 93.43 123.45 112.78 87.17 133.1 123.45 149.4 123.45 118.22 69.42 108.6 69.42"/>
        <polygon class="cls-3" points="277.76 69.42 215.8 69.42 215.8 80.86 239.59 80.86 239.59 123.45 253.85 123.45 253.85 80.86 277.76 80.86 277.76 69.42"/>
        <path class="cls-3" d="M316.3,100.56h-19.03l9.6-17.68,9.43,17.68h0ZM300.82,69.42l-30.46,54.03h14.47l6.03-11.35h31.54l6.23,11.35h16.09l-30.99-54.03h-12.92Z"/>
        <path class="cls-3" d="M368.33,100.2c-1.57,1.22-2.69,2.16-3.41,2.89-.16.16-.34.34-.53.54,0-.08.01-.15.01-.22.06-.97.12-1.9.18-2.77.06-.83.1-1.8.1-2.91v-28.32h-13.05v54.03h9.73l38.39-32.32c.89-.77,1.63-1.45,2.23-2.03l-.14,1.45c-.07,1.02-.1,2.29-.1,3.78v29.12h13.05v-54.03h-9.73l-36.72,30.78Z"/>
      </g>
    </g>
  </g>
</svg>